<svg xmlns="http://www.w3.org/2000/svg" viewBox="0 0 1281 720" width="1281" height="720"><defs></defs><g transform="matrix(1,0,0,1,0,0)">
<rect fill="#ffffff" x="0" y="0" width="1280" height="720"/>
<g>
	<g>
		<path d="M0,0 L1280,0 L1280,720 L0,720 L0,0 Z" fill="#000000" stroke="#505050" stroke-width="2"/>
	</g>
	<g>
		<path d="M150,0 C150,0 150,720 150,720" fill="none" stroke="#494b54" stroke-width="2"/>
	</g>
	<g>
		<path d="M-0.00000000000011368683772161603,360 C-0.00000000000011368683772161603,360 1280,360 1280,360" fill="none" stroke="#494b54" stroke-width="2"/>
	</g>
	<g>
		<path d="M-0.00000000000011368683772161603,-0.00000000000005684341886080802 C-0.00000000000011368683772161603,-0.00000000000005684341886080802 1281,-0.00000000000005684341886080802 1281,-0.00000000000005684341886080802" fill="none" stroke="#494b54" stroke-width="2"/>
	</g>
	<g>
		<path d="M1280,-0.00000000000005684341886080802 C1280,-0.00000000000005684341886080802 1280,720 1280,720" fill="none" stroke="#000000" stroke-width="2"/>
	</g>
	<g>
		<path d="M-0.00000000000011368683772161603,720 C-0.00000000000011368683772161603,720 1278.8839054389837,720 1278.8839054389837,720" fill="none" stroke="#494b54" stroke-width="2"/>
	</g>
	<g>
		<path d="M1280,0 C1280,0 1280.0000000000002,719.9999999999998 1280.0000000000002,719.9999999999998" fill="none" stroke="#494b54" stroke-width="2"/>
	</g>
	<g>
		<path d="M0,0 C0,0 0,720 0,720" fill="none" stroke="#494b54" stroke-width="2"/>
	</g>
	<g>
		<path d="M350,0 C350,0 350,720 350,720" fill="none" stroke="#494b54" stroke-dasharray="10"/>
	</g>
	<g>
		<path d="M250,0 C250,0 250,720 250,720" fill="none" stroke="#494b54" stroke-dasharray="10"/>
	</g>
	<g>
		<path d="M450,0 C450,0 450,720 450,720" fill="none" stroke="#494b54" stroke-dasharray="10"/>
	</g>
	<g>
		<path d="M550,0 C550,0 550,720 550,720" fill="none" stroke="#494b54" stroke-dasharray="10"/>
	</g>
	<g>
		<path d="M650,0 C650,0 650,720 650,720" fill="none" stroke="#494b54" stroke-dasharray="10"/>
	</g>
	<g>
		<path d="M750,0 C750,0 750,720 750,720" fill="none" stroke="#494b54" stroke-dasharray="10"/>
	</g>
	<g>
		<path d="M850,0 C850,0 850,720 850,720" fill="none" stroke="#494b54" stroke-dasharray="10"/>
	</g>
	<g>
		<path d="M950,0 C950,0 950,720 950,720" fill="none" stroke="#494b54" stroke-dasharray="10"/>
	</g>
	<g>
		<path d="M1050,0 C1050,0 1050,720 1050,720" fill="none" stroke="#494b54" stroke-dasharray="10"/>
	</g>
	<g>
		<path d="M1150,0 C1150,0 1150,720 1150,720" fill="none" stroke="#494b54" stroke-dasharray="10"/>
	</g>
	<g>
		<path d="M1250,0 C1250,0 1250,720 1250,720" fill="none" stroke="#494b54" stroke-dasharray="10"/>
	</g>
	<g>
		<path d="M50,0 C50,0 50,720 50,720" fill="none" stroke="#494b54" stroke-dasharray="10"/>
	</g>
	<g>
		<path d="M0,260 C0,260 1280,260 1280,260" fill="none" stroke="#494b54" stroke-dasharray="10" stroke-dashoffset="5"/>
	</g>
	<g>
		<path d="M0,160 C0,160 1280,160 1280,160" fill="none" stroke="#494b54" stroke-dasharray="10" stroke-dashoffset="5"/>
	</g>
	<g>
		<path d="M0,60 C0,60 1280,60 1280,60" fill="none" stroke="#494b54" stroke-dasharray="10" stroke-dashoffset="5"/>
	</g>
	<g>
		<path d="M0,460 C0,460 1280,460 1280,460" fill="none" stroke="#494b54" stroke-dasharray="10" stroke-dashoffset="5"/>
	</g>
	<g>
		<path d="M0,560 C0,560 1280,560 1280,560" fill="none" stroke="#494b54" stroke-dasharray="10" stroke-dashoffset="5"/>
	</g>
	<g>
		<path d="M0,660 C0,660 1280,660 1280,660" fill="none" stroke="#494b54" stroke-dasharray="10" stroke-dashoffset="5"/>
	</g>
</g></g></svg>